<?xml version="1.0" encoding="UTF-8" standalone="no"?>
<!-- Created with Inkscape (http://www.inkscape.org/) -->

<svg
   version="1.1"
   id="svg1"
   width="816"
   height="1056"
   viewBox="0 0 816 1056"
   xmlns="http://www.w3.org/2000/svg"
   xmlns:svg="http://www.w3.org/2000/svg">
  <defs
     id="defs1">
    <mask
       maskUnits="userSpaceOnUse"
       x="0"
       y="0"
       width="1"
       height="1"
       id="mask1360">
      <g
         id="g1364"
         clip-path="url(#clipPath1365)">
        <path
           d="M 0,0 H 100 V 100 H 0 Z"
           transform="matrix(16.438027,0,0,-6.1876,-412.58027,252.26228)"
           style="fill:url(#linearGradient1363);stroke:none"
           opacity="1"
           clip-path="url(#clipPath1363)"
           id="path1364" />
      </g>
    </mask>
    <linearGradient
       x1="0"
       y1="0"
       x2="0"
       y2="100.00128"
       gradientUnits="userSpaceOnUse"
       id="linearGradient1363">
      <stop
         style="stop-opacity:1;stop-color:#ffffff"
         offset="0"
         id="stop1360" />
      <stop
         style="stop-opacity:1;stop-color:#ffffff"
         offset="0.25"
         id="stop1361" />
      <stop
         style="stop-opacity:1;stop-color:#000000"
         offset="0.75"
         id="stop1362" />
      <stop
         style="stop-opacity:1;stop-color:#000000"
         offset="1"
         id="stop1363" />
    </linearGradient>
    <clipPath
       clipPathUnits="userSpaceOnUse"
       id="clipPath1363">
      <path
         d="M 0,0 H 100 V 100 H 0 Z"
         id="path1363" />
    </clipPath>
    <clipPath
       clipPathUnits="userSpaceOnUse"
       id="clipPath1365">
      <path
         d="M 0,0 H 100 V 100 H 0 Z"
         transform="matrix(16.438027,0,0,-6.1876,-412.58027,252.26228)"
         id="path1365" />
    </clipPath>
    <mask
       maskUnits="userSpaceOnUse"
       x="0"
       y="0"
       width="1"
       height="1"
       id="mask1367">
      <g
         id="g1371"
         clip-path="url(#clipPath1372)">
        <path
           d="M 0,0 H 100 V 100 H 0 Z"
           transform="matrix(18.312293,0,0,-13.493267,-459.62261,1202.6778)"
           style="fill:url(#linearGradient1370);stroke:none"
           opacity="1"
           clip-path="url(#clipPath1370)"
           id="path1371" />
      </g>
    </mask>
    <linearGradient
       x1="0"
       y1="0"
       x2="0"
       y2="100.00128"
       gradientUnits="userSpaceOnUse"
       id="linearGradient1370">
      <stop
         style="stop-opacity:1;stop-color:#000000"
         offset="0"
         id="stop1367" />
      <stop
         style="stop-opacity:1;stop-color:#000000"
         offset="0.25"
         id="stop1368" />
      <stop
         style="stop-opacity:1;stop-color:#ffffff"
         offset="0.75"
         id="stop1369" />
      <stop
         style="stop-opacity:1;stop-color:#ffffff"
         offset="1"
         id="stop1370" />
    </linearGradient>
    <clipPath
       clipPathUnits="userSpaceOnUse"
       id="clipPath1370">
      <path
         d="M 0,0 H 100 V 100 H 0 Z"
         id="path1370" />
    </clipPath>
    <clipPath
       clipPathUnits="userSpaceOnUse"
       id="clipPath1372">
      <path
         d="M 0,0 H 100 V 100 H 0 Z"
         transform="matrix(18.312293,0,0,-13.493267,-459.62261,1202.6778)"
         id="path1372" />
    </clipPath>
    <mask
       maskUnits="userSpaceOnUse"
       x="0"
       y="0"
       width="1"
       height="1"
       id="mask1376"
       opacity="0.8">
      <g
         id="g1380"
         clip-path="url(#clipPath1381)">
        <path
           d="M 0,0 H 100 V 100 H 0 Z"
           transform="matrix(9.2075333,0,0,-1.7710133,-231.10217,995.64892)"
           style="fill:url(#linearGradient1379);stroke:none"
           opacity="1"
           clip-path="url(#clipPath1379)"
           id="path1380" />
      </g>
    </mask>
    <linearGradient
       x1="0"
       y1="0"
       x2="100.00128"
       y2="0"
       gradientUnits="userSpaceOnUse"
       id="linearGradient1379">
      <stop
         style="stop-opacity:1;stop-color:#000000"
         offset="0"
         id="stop1376" />
      <stop
         style="stop-opacity:1;stop-color:#000000"
         offset="0.25"
         id="stop1377" />
      <stop
         style="stop-opacity:1;stop-color:#ffffff"
         offset="0.75"
         id="stop1378" />
      <stop
         style="stop-opacity:1;stop-color:#ffffff"
         offset="1"
         id="stop1379" />
    </linearGradient>
    <clipPath
       clipPathUnits="userSpaceOnUse"
       id="clipPath1379">
      <path
         d="M 0,0 H 100 V 100 H 0 Z"
         id="path1379" />
    </clipPath>
    <clipPath
       clipPathUnits="userSpaceOnUse"
       id="clipPath1381">
      <path
         d="M 0,0 H 100 V 100 H 0 Z"
         transform="matrix(9.2075333,0,0,-1.7710133,-231.10217,995.64892)"
         id="path1381" />
    </clipPath>
  </defs>
  <g
     id="g1">
    <path
       style="font-weight:600;font-size:75.9311px;line-height:1.25;font-family:'URW Gothic';-inkscape-font-specification:'URW Gothic, Semi-Bold';fill:#d6d000;stroke-width:1.18642"
       d="m 35.509832,188.41611 h 13.060149 c 8.504283,0 13.591667,-0.83524 18.147533,-3.11318 8.656145,-4.25214 13.743529,-13.51573 13.743529,-24.82947 0,-10.70628 -4.404004,-19.43836 -12.224907,-24.14609 -4.404004,-2.65759 -11.085941,-4.02434 -19.893948,-4.02434 H 35.509832 Z m 10.402561,-9.94698 V 142.25 h 2.05014 c 6.681936,0 10.174767,0.60745 13.439804,2.27793 5.315177,2.73352 8.580214,8.73208 8.580214,15.94553 0,6.75787 -3.113175,12.75643 -8.124627,15.48995 -3.113175,1.67048 -7.441248,2.50572 -13.667598,2.50572 z m 41.686233,9.94698 H 97.697462 V 146.35028 H 87.598626 Z m 0,-46.6217 h 10.098836 v -9.49138 H 87.598626 Z m 28.929734,5.31518 c 0.0759,-3.87249 1.36676,-5.08738 5.3911,-5.08738 h 0.91118 v -9.56732 c -1.2149,-0.15186 -1.74642,-0.15186 -2.50573,-0.15186 -4.404,0 -7.97276,1.59455 -10.55442,4.70772 -2.05014,2.4298 -2.80945,4.85959 -3.34097,10.09884 h -3.64469 v 8.42835 h 3.64469 v 32.87817 h 10.09884 v -32.87817 h 8.808 v 32.87817 h 10.09884 v -32.87817 h 5.69483 v -8.42835 h -5.69483 c 0.0759,-3.87249 1.36676,-5.08738 5.39111,-5.08738 h 0.91117 v -9.56732 c -1.2149,-0.15186 -1.74641,-0.15186 -2.50572,-0.15186 -4.40401,0 -7.97277,1.59455 -10.63036,4.70772 -1.97421,2.4298 -2.73352,4.78366 -3.26504,10.09884 z m 71.67891,24.75354 c 0.30372,-1.51862 0.37965,-2.4298 0.37965,-3.94842 0,-12.98422 -9.18766,-22.55154 -21.71629,-22.55154 -12.37677,0 -22.17188,9.79512 -22.17188,22.17188 0,12.30084 9.94697,21.86816 22.77933,21.86816 6.90973,0 12.30083,-2.50572 16.70484,-7.59311 1.59455,-1.97421 2.65759,-3.72062 3.34097,-5.84669 h -11.01001 c -2.58166,3.03724 -5.08739,4.17621 -9.2636,4.17621 -5.99855,0 -10.40256,-3.18911 -11.61746,-8.27649 z m -32.87817,-8.88394 c 1.59455,-5.46704 5.69483,-8.35242 11.69339,-8.35242 6.22635,0 10.32663,2.96131 11.61746,8.35242 z m 39.78785,25.43692 h 10.09883 v -23.38678 c -0.22779,-6.22635 2.96132,-9.71918 9.0358,-9.94698 v -9.71918 h -0.75931 c -4.32807,0 -6.45414,1.2149 -9.11173,5.08739 v -4.10028 h -9.26359 z m 64.54147,-16.55298 c 0.30373,-1.51862 0.37966,-2.4298 0.37966,-3.94842 0,-12.98422 -9.18767,-22.55154 -21.7163,-22.55154 -12.37677,0 -22.17188,9.79512 -22.17188,22.17188 0,12.30084 9.94698,21.86816 22.77933,21.86816 6.90973,0 12.30084,-2.50572 16.70484,-7.59311 1.59456,-1.97421 2.65759,-3.72062 3.34097,-5.84669 h -11.01001 c -2.58165,3.03724 -5.08738,4.17621 -9.26359,4.17621 -5.99856,0 -10.40256,-3.18911 -11.61746,-8.27649 z m -32.87816,-8.88394 c 1.59455,-5.46704 5.69483,-8.35242 11.69339,-8.35242 6.22635,0 10.32662,2.96131 11.61745,8.35242 z m 39.78784,25.43692 h 10.09884 v -19.81802 c 0,-5.6189 0.37966,-8.0487 1.67048,-10.09884 1.59456,-2.50572 4.17622,-3.87248 7.44125,-3.87248 2.65759,0 4.70773,0.91117 6.07449,2.65759 1.36676,1.82234 1.97421,4.93552 1.97421,10.55442 v 20.57733 h 10.09883 v -22.55154 c 0,-7.51718 -0.75931,-11.16187 -3.03724,-14.42691 -2.73352,-3.94842 -7.28938,-6.07449 -13.13608,-6.07449 -4.85959,0 -8.12463,1.36676 -11.84525,5.01146 v -4.02435 h -9.33953 z m 47.07731,0 h 10.09884 v -32.87817 h 6.07449 v -9.18766 h -6.07449 v -14.04725 h -10.09884 v 14.04725 h -4.93552 v 9.18766 h 4.93552 z m 21.71627,0 h 10.09884 v -42.06583 h -10.09884 z m 0,-46.6217 h 10.09884 v -9.49138 h -10.09884 z m 60.8208,4.55587 h -9.26359 v 5.6189 c -3.49284,-4.6318 -7.66905,-6.60601 -13.74353,-6.60601 -12.4527,0 -21.41257,9.33953 -21.41257,22.17188 0,12.6805 8.88394,21.86816 21.18477,21.86816 5.92263,0 9.94698,-1.82234 13.97133,-6.45414 v 5.46704 h 9.26359 z m -21.94409,8.27649 c 7.21346,0 12.37677,5.39111 12.37677,13.06015 0,3.03724 -1.2149,6.53007 -3.03724,8.65614 -2.05014,2.50573 -5.31518,3.79656 -9.18767,3.79656 -7.36531,0 -12.4527,-5.01146 -12.4527,-12.37677 0,-7.66904 5.08739,-13.13608 12.30084,-13.13608 z m 29.46128,33.78934 h 10.09883 v -56.11308 h -10.09883 z m 40.54722,0 h 30.14465 v -9.94698 h -19.74209 v -13.06015 h 18.90685 v -9.94697 H 454.64945 V 142.25 h 19.74209 v -9.94697 h -30.14465 z m 70.99556,-42.06583 v 5.39111 c -3.26504,-4.40401 -7.51718,-6.37822 -13.6676,-6.37822 -11.84525,0 -21.18477,9.64325 -21.18477,21.86816 0,12.52863 9.26359,22.17188 21.33663,22.17188 5.16332,0 9.33953,-1.67048 12.6805,-5.01145 v 18.0716 h 10.09883 v -56.11308 z m -12.22491,8.27649 c 6.8338,0 11.99712,5.54297 11.99712,12.90828 0,7.28939 -5.08739,12.60457 -12.07305,12.60457 -7.13752,0 -12.37677,-5.39111 -12.37677,-12.6805 0,-7.44124 5.31518,-12.83235 12.4527,-12.83235 z m 67.42689,-8.27649 h -10.09884 v 19.81802 c 0,5.6189 -0.37965,8.27648 -1.59455,10.09883 -1.44269,2.50573 -4.25214,3.87249 -7.66904,3.87249 -2.58166,0 -4.55587,-0.83524 -5.92263,-2.65759 -1.44269,-1.82235 -2.05014,-4.85959 -2.05014,-10.55442 V 146.35028 H 533.0104 v 22.55153 c 0,7.13753 0.83524,10.85815 3.1891,14.27505 2.80945,4.02435 7.28939,6.22635 12.83236,6.22635 5.08738,0 8.20056,-1.29083 12.07304,-5.01145 v 4.02435 h 9.33953 z m 50.72203,0 h -9.2636 v 5.6189 c -3.49283,-4.6318 -7.66904,-6.60601 -13.74353,-6.60601 -12.4527,0 -21.41257,9.33953 -21.41257,22.17188 0,12.6805 8.88394,21.86816 21.18478,21.86816 5.92263,0 9.94698,-1.82234 13.97132,-6.45414 v 5.46704 h 9.2636 z m -21.94409,8.27649 c 7.21345,0 12.37677,5.39111 12.37677,13.06015 0,3.03724 -1.2149,6.53007 -3.03724,8.65614 -2.05014,2.50573 -5.31518,3.79656 -9.18767,3.79656 -7.36531,0 -12.4527,-5.01146 -12.4527,-12.37677 0,-7.66904 5.08739,-13.13608 12.30084,-13.13608 z m 32.2707,33.78934 h 10.09883 v -32.87817 h 6.07449 v -9.18766 h -6.07449 v -14.04725 h -10.09883 v 14.04725 h -4.93552 v 9.18766 h 4.93552 z m 21.71624,0 h 10.09884 v -42.06583 h -10.09884 z m 0,-46.6217 h 10.09884 v -9.49138 h -10.09884 z m 38.64891,3.56876 c -12.2249,0 -22.24781,9.94698 -22.24781,22.02002 0,12.14898 10.02291,22.02002 22.32375,22.02002 12.2249,0 22.39967,-9.87104 22.39967,-21.71629 0,-12.52863 -9.79511,-22.32375 -22.47561,-22.32375 z m 0.0759,9.2636 c 6.75786,0 12.2249,5.69483 12.2249,12.75642 0,7.06159 -5.46704,12.75643 -12.14897,12.75643 -6.8338,0 -12.22491,-5.69484 -12.22491,-12.90829 0,-6.90973 5.46704,-12.60456 12.14898,-12.60456 z m 28.09449,33.78934 h 10.09883 v -19.81802 c 0,-5.6189 0.37966,-8.0487 1.67049,-10.09884 1.59455,-2.50572 4.17621,-3.87248 7.44124,-3.87248 2.65759,0 4.70773,0.91117 6.07449,2.65759 1.36676,1.82234 1.97421,4.93552 1.97421,10.55442 v 20.57733 h 10.09884 v -22.55154 c 0,-7.51718 -0.75932,-11.16187 -3.03725,-14.42691 -2.73352,-3.94842 -7.28938,-6.07449 -13.13608,-6.07449 -4.85959,0 -8.12463,1.36676 -11.84525,5.01146 v -4.02435 h -9.33952 z m 42.90106,-13.36388 c 0.45559,4.10028 1.13897,6.30228 2.80945,8.50429 2.73352,3.64469 7.51718,5.84669 12.60456,5.84669 8.42836,0 15.03436,-6.30228 15.03436,-14.35098 0,-6.37821 -3.1891,-9.71918 -11.69339,-12.30083 -4.17621,-1.29083 -4.17621,-1.29083 -5.16331,-1.74642 -1.2149,-0.60745 -1.97421,-1.59455 -1.97421,-2.88538 0,-1.97421 1.67048,-3.49283 3.87249,-3.49283 2.12607,0 3.49283,1.13896 3.94841,3.34097 h 9.87105 c -0.15187,-3.56877 -0.98711,-5.69484 -3.03725,-7.97277 -2.65759,-2.96131 -6.606,-4.6318 -10.78221,-4.6318 -7.89684,0 -13.97133,5.61891 -13.97133,12.83236 0,6.15042 3.26504,9.64325 11.69339,12.4527 3.79656,1.29083 4.17621,1.44269 5.23925,2.12607 1.2149,0.75931 1.89828,1.89828 1.89828,3.26504 0,2.35386 -1.89828,4.10028 -4.55587,4.10028 -2.96131,0 -4.6318,-1.51862 -5.6189,-5.08739 z"
       id="text1388"
       aria-label="Differential Equations" />
    <path
       d="m -108.00139,-608.48463 h 343.92386 v -66.15221 h -343.92386"
       style="fill:#0f004d;fill-opacity:0.8;fill-rule:nonzero;stroke:none"
       transform="matrix(1.333435,0,0,-1.3335376,144.03143,51.543761)"
       opacity="1"
       mask="url(#mask1376)"
       id="path1382" />
  </g>
  <g
     id="g1385" />
  <g
     id="g1386" />
  <g
     id="g1388" />
</svg>
